/* XPM */
static char *_2243f5b71114fc0bbf0fd0a6a8f0481mdvXBCGRVGZ3B1nh[] = {
/* columns rows colors chars-per-pixel */
"32 32 5 1 ",
"  c #261613",
". c #2E1219",
"X c #133016",
"o c #3B211D",
"O c #6B2121",
/* pixels */
" o o ooooo oo...   .  .oo  oo o ",
"ooo   ooXo X oX     OOX o  o  oo",
"  o ooo oooX. OX OO.. X. Xo oo o",
" oo   Xooo XXO.OO.OO.OOX XXo    ",
"o  oo  oo oo..oX..OooO X.o oooo ",
"oooo XXooXoo.O.OXX..OO.XX Xo o  ",
" ooooXooX oXOO..oO..OO..  XXoo  ",
" oo o XoXX  oOOXO.O..oXoXooXXo  ",
" oo  oX    X XO .ooo XXXXX oooo ",
"o ooo    o  ooXoO.   oXoX ooo  o",
"o ooooo XXXXXXoO OoO oOXXo o ooo",
"   ooooo    X ooO o oXOooooooo o",
" ooooooo   XX o oO XX XXXo ooo  ",
"o o oooo    ooooo ooXXoXXooooooo",
"ooooooooo ooooooo oXo oooXX oooo",
"oooo ooo  o  o ooooX  XoooXXXooo",
"oo o o   o oooooooo  XX XoXXoo  ",
" ooo oXoXo o o ooXXX X XXX XXoo ",
"o oooXX XXoo o o XXXX X X oooX  ",
"ooooXXoXXoXooo oo XX X X  XXXX  ",
"oo XXXXXXXXXXoooo XX XXXX XXX   ",
"ooXooXXXXXXXX ooo  X XX o  X    ",
"oXX oXXXXXX ooooo   XXXXoXXXo o ",
"oXXXXXXoXXXo Xoooo    XXooXoooo ",
"oXXXooXXXXXX Xo o     Xoo ooooo ",
"o XXXXXXXXXoXo oooo  o  oooo o  ",
"    o X XXXXXoo ooo   oooo   oo ",
"o  XX o XoX o ooo o  oooooo ooo ",
"oo  XXX XX oooooo o o  oo oo o  ",
"  oo  oXo oo  oooo    o o oooo o",
"    o     ooo  oo o  oooo  oooo ",
"            oo o o    ooo oooo  "
};
